<?xml version="1.0" encoding="iso-8859-1"?>
<!-- Uploaded to: SVG Repo, www.svgrepo.com, Generator: SVG Repo Mixer Tools -->
<svg height="800px" width="800px" version="1.1" id="Layer_1" xmlns="http://www.w3.org/2000/svg" xmlns:xlink="http://www.w3.org/1999/xlink" 
	 viewBox="0 0 512 512" xml:space="preserve">
<path style="fill:#ABECEC;" d="M374.313,8.257v258.822c71.468,0,129.411-57.932,129.411-129.411
	C503.724,66.2,445.781,8.257,374.313,8.257z"/>
<path style="fill:#D5F6F5;" d="M374.313,8.257c53.218,0,96.37,57.943,96.37,129.411c0,71.479-43.152,129.411-96.37,129.411
	c-25.838,0-49.892-7.566-70.091-20.607l-65.807,27.094l27.094-65.807c-13.04-20.199-20.607-44.253-20.607-70.091
	C244.902,66.2,302.834,8.257,374.313,8.257z"/>
<path style="fill:#FE834D;" d="M446.847,414.948l-20.607-20.607l-54.515,54.515l67.092,20.365c2.703-2.376,5.374-4.891,8.029-7.547
	C459.697,448.825,459.697,427.798,446.847,414.948z"/>
<path style="fill:#FEA680;" d="M423.482,438.312c-2.655,2.655-5.32,5.179-7.998,7.577l-80.352-18.048l-18.048-80.352l7.788-7.788
	c12.85-12.85,33.877-12.85,46.727,0l54.64,54.64C437.571,405.674,436.333,425.462,423.482,438.312z"/>
<path style="fill:#FE5F1A;" d="M415.484,445.889l-275.402-66.158c91.352,90.495,204.75,172.742,298.735,89.491L415.484,445.889z"/>
<path style="fill:#FEA680;" d="M172.277,140.38l-23.363-23.363l-57.879,57.879l73.455,19.999l7.788-7.788
	C185.127,174.257,185.127,153.229,172.277,140.38z"/>
<path style="fill:#FFC1A6;" d="M148.914,163.743l-7.788,7.788L60.79,153.498L42.757,73.162c2.376-2.703,4.891-5.374,7.547-8.029
	c12.85-12.85,33.877-12.85,46.727,0l51.882,51.882C161.763,129.866,161.763,150.893,148.914,163.743z"/>
<path style="fill:#FE834D;" d="M317.084,347.49l98.4,98.4c-93.174,83.72-194.837,13.442-275.402-66.158
	c-1.316-1.301-2.625-2.609-3.925-3.91c-92.013-92.014-177.844-207.329-93.4-302.66l121.732,121.732l-33.075,33.075L284.01,380.565
	L317.084,347.49z"/>
<path d="M377.438,333.863c-7.776-7.775-18.147-12.056-29.205-12.056s-21.429,4.282-29.206,12.056l-35.017,35.018L143.1,227.968
	l27.223-27.223c0.013-0.013,7.794-7.794,7.794-7.794c7.776-7.776,12.057-18.147,12.057-29.205c0-11.058-4.282-21.429-12.057-29.206
	l-75.248-75.246c-7.775-7.775-18.146-12.056-29.204-12.056c-11.059,0-21.43,4.282-29.205,12.056
	c-46.051,46.052-56.373,101.604-30.679,165.118c18.875,46.656,55.903,96.626,116.533,157.255
	C186.262,437.616,270.171,511.997,352.553,512c36.93,0,70.619-14.965,100.133-44.48c16.102-16.103,16.102-42.306,0-58.409
	L377.438,333.863z M441.004,455.839c-26.675,26.675-55.607,39.642-88.451,39.641c-76.247-0.003-156.686-71.623-210.558-125.495
	C82.986,310.975,47.112,262.751,29.097,218.216C5.802,160.633,14.649,112.47,56.142,70.977c4.654-4.655,10.877-7.218,17.523-7.218
	c6.645,0,12.868,2.563,17.523,7.218l75.248,75.247c4.654,4.656,7.218,10.878,7.218,17.523s-2.563,12.868-7.218,17.522l-1.947,1.947
	L71.999,90.729c-3.226-3.225-8.456-3.225-11.681,0c-3.226,3.227-3.226,8.456,0,11.682l92.488,92.487l-27.229,27.229
	c-3.226,3.227-3.226,8.456,0,11.682L278.17,386.403c1.55,1.549,3.65,2.419,5.842,2.419c2.192,0,4.291-0.87,5.842-2.419
	l27.229-27.229l92.502,92.502c1.613,1.612,3.728,2.419,5.842,2.419c2.114,0,4.228-0.806,5.842-2.419
	c3.226-3.227,3.226-8.456,0-11.682l-92.502-92.502l1.946-1.946c4.655-4.655,10.879-7.218,17.524-7.218
	c6.645,0,12.868,2.563,17.522,7.218l75.248,75.248C450.665,430.456,450.665,446.177,441.004,455.839z"/>
<path d="M374.308,0c-75.912,0-137.671,61.759-137.671,137.671c0,25.095,6.77,49.499,19.62,70.862l-25.485,61.892
	c-1.27,3.084-0.561,6.628,1.797,8.986c1.58,1.58,3.693,2.419,5.843,2.419c1.058,0,2.127-0.204,3.143-0.621l61.89-25.486
	c21.364,12.851,45.767,19.62,70.862,19.62c75.912,0,137.671-61.759,137.671-137.671S450.22,0,374.308,0z M374.308,258.822
	c-23.374,0-46.06-6.671-65.61-19.289c-1.354-0.874-2.913-1.321-4.48-1.321c-1.064,0-2.132,0.206-3.143,0.621l-47.477,19.549
	l19.549-47.477c1.031-2.502,0.769-5.35-0.699-7.625c-12.62-19.549-19.289-42.236-19.289-65.61
	c0-66.803,54.347-121.151,121.151-121.151S495.46,70.869,495.46,137.671S441.112,258.822,374.308,258.822z"/>
</svg>