<svg xmlns="http://www.w3.org/2000/svg" width="20.501" height="20.54"><path data-name="phone (1)" d="M20 15.128v2.941a1.961 1.961 0 0 1-2.137 1.961 19.4 19.4 0 0 1-8.461-3.01 19.118 19.118 0 0 1-5.883-5.882 19.4 19.4 0 0 1-3.01-8.5A1.961 1.961 0 0 1 2.46.5h2.941a1.961 1.961 0 0 1 1.961 1.686 12.589 12.589 0 0 0 .686 2.755 1.961 1.961 0 0 1-.441 2.069L6.362 8.255a15.687 15.687 0 0 0 5.883 5.883l1.244-1.245a1.961 1.961 0 0 1 2.069-.441 12.589 12.589 0 0 0 2.755.686 1.961 1.961 0 0 1 1.686 1.99Z" fill="none" stroke="#1b1c20" stroke-linecap="round" stroke-linejoin="round"/></svg>