<svg xmlns="http://www.w3.org/2000/svg" viewBox="0 0 24 24"><path d="M.5 24.002a.498.498 0 0 1-.466-.68l1.863-4.845A11.92 11.92 0 0 1 0 12.002c0-6.617 5.383-12 12-12s12 5.383 12 12-5.383 12-12 12c-2.244 0-4.429-.626-6.333-1.814L.668 23.973a.487.487 0 0 1-.168.029zm5.23-2.867c.096 0 .191.027.273.081A10.942 10.942 0 0 0 12 23.003c6.065 0 11-4.935 11-11s-4.935-11-11-11-11 4.935-11 11c0 2.198.646 4.32 1.87 6.136.091.135.11.307.052.459l-1.564 4.067 4.204-1.501a.507.507 0 0 1 .168-.029z"/><path d="M15 18.002c-1.571 0-4.587-1.879-5.854-3.146C7.879 13.588 6 10.572 6 9.002c0-1.616 1.375-3 2.5-3h1a.5.5 0 0 1 .448.279c.001.001.603 1.225.997 1.993.444.867-.391 1.887-.866 2.368.17.436.567 1.3 1.274 2.007s1.571 1.105 2.007 1.274c.48-.476 1.5-1.312 2.368-.866.768.395 1.991.996 1.992.996.172.085.28.259.28.449v1c0 1.126-1.385 2.5-3 2.5zm-6.5-11c-.565 0-1.5.935-1.5 2 0 1.159 1.634 3.926 2.854 5.146 1.333 1.333 4.074 2.854 5.146 2.854 1.065 0 2-.935 2-1.5v-.689a133.78 133.78 0 0 1-1.729-.866c-.234-.126-.945.375-1.396.886a.501.501 0 0 1-.514.149c-.063-.018-1.544-.456-2.715-1.627s-1.608-2.652-1.627-2.715a.501.501 0 0 1 .149-.514c.51-.451 1.008-1.159.886-1.397-.279-.543-.662-1.317-.864-1.727H8.5z"/></svg>